<svg xmlns="http://www.w3.org/2000/svg" xmlns:xlink="http://www.w3.org/1999/xlink" viewBox="0 0 290.8 34.2"><defs><style>.cls-1{fill:#fff;}.cls-2{fill:url(#linear-gradient);}</style><linearGradient id="linear-gradient" x1="250.85" y1="0.55" x2="288" y2="37.7" gradientTransform="matrix(1, 0, 0, -1, 0, 36.2)" gradientUnits="userSpaceOnUse"><stop offset="0" stop-color="#22a392"/><stop offset="0.17" stop-color="#219f8f"/><stop offset="0.33" stop-color="#1f9485"/><stop offset="0.48" stop-color="#1b8274"/><stop offset="0.63" stop-color="#16685d"/><stop offset="0.77" stop-color="#0f463f"/><stop offset="0.91" stop-color="#061e1a"/><stop offset="1"/></linearGradient></defs><g id="Layer_2" data-name="Layer 2"><g id="logo"><g id="LOGO-2" data-name="LOGO"><path class="cls-1" d="M22.7,34H0V12.8H10.6V25.2H22.8c5.8,0,10-3.2,10-8.1s-4.4-8.3-10-8.3H0V0H22.7C34.6,0,43.1,6.8,43.1,16.6,43.2,26.6,34.5,34,22.7,34Z"/><path class="cls-1" d="M67.7,27.4a40.43,40.43,0,0,0-4.8-4.5,10.65,10.65,0,0,0,8.9-10.8C71.8,2.4,62.1,0,54.3,0H36.5a19,19,0,0,1,8.3,8.8H55.1c3.6,0,5.8,1.3,5.8,4,0,2.3-2.5,3.8-5.8,3.8H46.5v.1A19.09,19.09,0,0,1,44.6,25h7.6l7.6,9H73.9Z"/><polygon class="cls-1" points="36.1 34 36.2 34 36.2 34 36.1 34"/><path class="cls-1" d="M126.9,13.4c8.1,0,12.5,3,12.5,9.1,0,6.8-4.1,10.9-14.3,10.9H94l6.6-8.6h25.3c2.4,0,3.5-.7,3.5-2.4s-1.1-2.4-3.5-2.4H107.7c-8.6,0-12.5-3.8-12.5-9.6C95.2,4.1,99.4,0,109.5,0h29l-6.6,8.7H108.7c-2.4,0-3.5.6-3.5,2.3s1.1,2.3,3.5,2.3h18.2Z"/><path class="cls-1" d="M182.5.1l-6.7,8.7H163.9V33.5H153.6V8.8H137.9L144.6.1Z"/><path class="cls-1" d="M196.2,33.5H185.9V.1h10.3Z"/><path class="cls-1" d="M245.1,24.9l-6.6,8.6H221.7c-11.6,0-20.1-7.3-20.1-17S210.1.1,221.7.1h23.4l-6.6,8.7H221.7c-5.6,0-9.8,3.3-9.8,8.1s4.1,8,9.8,8Z"/><path class="cls-2" d="M290.8,33.5H275.2l-10.1-8.8c-3.4-3-5-4.4-6.2-5.6.1,1.5.1,3.2.1,4.8v9.6H248.6V.1H259V7.8c0,2-.1,4.1-.2,5.8,1.3-1.2,3.1-2.9,6.1-5.4L274.5.1h15L276.7,9.7c-4.4,3.3-6.5,4.8-8.6,6.1,1.9,1.3,4.5,3.1,8.8,6.6Z"/><circle class="cls-1" cx="83.6" cy="29.4" r="4.8"/></g></g></g></svg>